<?xml version="1.0" encoding="UTF-8"?>
<svg id="Layer_1" data-name="Layer 1" xmlns="http://www.w3.org/2000/svg" viewBox="0 0 150 150">
  <defs>
    <style>
      .cls-1 {
        fill: #fff;
      }

      .cls-2 {
        fill: #1c7199;
      }
    </style>
  </defs>
  <rect class="cls-2" width="150" height="150"/>
  <g>
    <path class="cls-1" d="m77,92.64h-11.22v-23.17h11.22c8.2,0,12.3,3.86,12.3,11.58s-4.1,11.58-12.3,11.58Z"/>
    <path class="cls-1" d="m150,74.99c0,41.42-33.57,75.01-74.99,75.01-3.13,0-6.21-.19-9.23-.57v-25.61h15.68c10.21,0,18.91-1.9,26.1-5.7,7.19-3.8,12.62-8.94,16.31-15.42,3.68-6.47,5.52-13.69,5.52-21.65,0-13.18-4.13-23.69-12.39-31.54-8.25-7.84-20.1-11.76-35.54-11.76H26.22v94.21C10.18,118.21,0,97.79,0,74.99,0,33.57,33.58,0,75.01,0s74.99,33.57,74.99,74.99Z"/>
  </g>
</svg>